<?xml version="1.0" encoding="utf-8"?>
<!-- Generator: Adobe Illustrator 26.0.1, SVG Export Plug-In . SVG Version: 6.00 Build 0)  -->
<svg version="1.1" id="Layer_1" xmlns="http://www.w3.org/2000/svg" xmlns:xlink="http://www.w3.org/1999/xlink" x="0px" y="0px"
	 viewBox="0 0 1200 1200" style="enable-background:new 0 0 1200 1200;" xml:space="preserve">
<style type="text/css">
	.st0{fill:#C90082;stroke:#000000;stroke-width:10;stroke-miterlimit:10;}
	.st1{fill:#E9BE00;}
	.st2{fill:none;stroke:#C90082;stroke-width:20;stroke-miterlimit:10;}
	.st3{stroke:#000000;stroke-width:10.0002;stroke-miterlimit:10.0002;}
	.st4{stroke:#000000;stroke-width:10;stroke-miterlimit:10;}
	.st5{fill:#E9BE00;stroke:#000000;stroke-miterlimit:10;}
	.st6{display:none;fill:none;stroke:#000000;stroke-width:3;stroke-miterlimit:10;}
	.st7{fill:none;stroke:#000000;stroke-width:20;stroke-miterlimit:10;stroke-dasharray:12;}
	.st8{fill:none;stroke:#000000;stroke-miterlimit:10;}
</style>
<g id="illustration_00000083809515266216408250000013084396038852902839_">
	<path class="st0" d="M446.6,544.3c-6.2,4.8-15.7,10.6-28.2,13c-6.1,1.2-7.6,0.5-32.8-0.5c-22.1-0.8-29.7-0.6-38.2,3.8
		c-3,1.5-8.6,3.5-11.8,9.1c-0.8,1.4-3.4,6-1.8,9.6c1.6,3.9,7.1,4.7,15.9,5.8c9,1.1,17.9,2.3,26.9,3.4c16.4,2,26.5,4.6,29.1,5.3
		c5.5,1.4,9.5,2.8,12.7,3.8c19.3,6.4,24.4,5.8,26.9,10.6c2.4,4.7,0.6,10.2-0.5,13.4c-1,3.2-4,10.1-15.5,17.8
		c-14,9.3-30.3,11.1-41,12.5c-5.6,0.7-10.9,1.1-17.7,4.3c-7.9,3.8-12.3,8.9-13.7,10.6c-2.6,3.2-10.3,12.6-7.3,19.2
		c2.7,6,12.9,6.2,15.9,6.2c9.5,0.1,14-3.9,23.7-7.2c4.7-1.6,12-2.1,26.4-3.4c26.9-2.3,30.9-0.2,33.7,1.9c4.1,3.3,7.8,9,8.6,15.4
		c0.7,5-0.5,9-1.4,11.5c-4.6,13.6-13.7,22.8-23.7,36c-14.1,18.8-17.1,28.6-18.2,36c-0.8,5.3-1.8,12.8,2.3,16.8
		c5.5,5.5,17.9,2.3,25.5-3.8c2.5-2.1,4.1-4.1,14.1-24c5.6-11.1,6.4-13,8.6-17.3c8.6-16.4,10.1-23.2,17.3-27.8
		c3.2-2.1,6.3-4.1,9.1-2.9c5.1,2.2,3.8,13.2,4.6,43.2c0.5,20.9,1.3,22.5,0.9,36c-0.4,12.8-0.5,19.1-1.4,25.9
		c-1.9,16.1-4.8,22.4-0.9,29.3c2.4,4.2,7.1,8.3,12.3,8.2c8.5-0.3,13.5-12,14.1-13.4c4.1-9.6,1.6-17.6-0.9-33.1
		c0,0-2.1-12.8-4.1-36.5c-1-12.5-0.9-30.7,5-53.8c0.8-1.5,3.4-5.8,7.7-6.7c6.8-1.4,12.7,6.4,13.7,7.7c6.9,9.6,1.9,20.3,0.5,41.3
		c-1.2,17.3,2,13.3,2.7,44.6c0.8,30.6-2,41.4,5,46.6c5.1,3.7,13.5,3.2,17.7-1c5.7-5.6,2.1-15.8,0.5-34.1
		c-2.3-24.4,2.7-20.7,0.9-46.6c-0.2-2.8-2.1-29.8-0.5-50.9c0.2-2,0.6-6.5,3.6-10.1c4.5-5.3,12.9-6.6,19.1-4.8
		c14,4.1,20.1,24.8,22.8,33.6c3.9,13.1,2.3,18.9,8.6,28.8c1.4,2.2,5.8,8.7,13.7,12.5c3,1.5,6.5,3.1,10.5,1.9c5.4-1.5,7.9-7,8.2-7.7
		c2.6-6.1,0.3-12.5-1.8-17.8c-3.3-8.5-6.9-11.2-14.6-22.1c-6.5-9.3-6-10.1-10.9-17.3c-9.7-13.9-17.2-13.7-22.8-24.5
		c-2.1-4-6-9.9-4.6-16.8c1.5-7.3,7.6-11.4,10-13c3.1-2.1,9.4-5.4,28.7-4.3c9.5,0.5,20.9,1.2,35.5,5.8c8.3,2.6,13.5,5.2,22.8,5.3
		c5.8,0,11.7,0,16.4-4.3c5.3-4.8,8.1-14,5-20.6c-2.9-6.2-9.8-7.9-16.8-9.6c-10.9-2.6-16.6-0.4-31.9,0c-11.8,0.3-9.3-1-24.1-1
		c-23.7,0-32.6,3.2-38.2-3.4c-3-3.6-3.8-8.4-4.1-10.6c-0.9-6,0.6-10.6,2.7-17.3c2.4-7.4,3.6-11,5.9-13.9c2.1-2.6,6.7-6.6,29.1-7.7
		c11.9-0.6,15.8,0.3,36,0c8.3-0.1,14.2-0.4,21.4-3.4c5.5-2.3,12-5,14.6-12c2.2-6,0.9-13.6-3.2-18.2c-3.9-4.3-9.4-5.1-21.4-4.8
		c-16.1,0.4-28.1,2.4-33.7,3.4c-38.3,6.2-44.2,3.6-47.8,0c-4.1-4.2-5.7-10.8-5-15.8c1.8-12.3,17.7-20.4,27.8-23
		c1.9-0.5,10.2-2.5,21.4-5.8c4.1-1.2,6.5-2,8.2-4.3c3.6-4.9,2.5-14.4-2.3-19.2c-6.5-6.7-18.5-3.1-25.9-1c-1.9,0.5-4.3,1.4-12.3,5.3
		c-22.3,10.9-24.3,14.9-32.3,14.9c-6.6,0-15.6-2.9-19.1-10.1c-2.6-5.4-1.2-11.2,0-15.8c2.3-8.8,8.2-11.1,20-27.8
		c2-2.8,3.6-5.2,3.2-8.2c-0.8-5.3-8-8.7-13.2-9.6c-9.4-1.5-17,4.7-17.7,5.3c-11.2,9.4-5.6,22.2-15.5,30.2c-7.1,5.7-18,5.9-25.5,2.4
		c-9.1-4.3-8.1-11.7-21.4-23.5c-5.9-5.2-10.3-9.2-17.3-10.6c-10.3-2-22.5,2.2-27.3,11c-0.5,1-3.5,6.6-1.4,9.6
		c2.3,3.3,8.1-0.3,15.5,1c9.8,1.6,20.8,11.3,21.4,23c0.5,9.7-6.3,16.8-6.8,17.3c-0.9,0.9-4.5,4.3-10.5,5.8
		c-11.1,2.7-18.2-4.5-39.6-13.9c-20.4-9-26.6-8.1-30.5-6.7c-2.7,0.9-10.3,4.2-13.7,12.5c-0.4,1.1-4.6,10.5,0.5,16.8
		c7,8.7,18.6,7.9,22.3,7.2c6.8-1.2,7.5-2.4,14.1-3.4c13-2,29.4,2.4,30.9,10.1C456.4,531.1,457,536.2,446.6,544.3z"/>
	<path class="st1" d="M628.1,608.5c3,93.6-8.7,108.4-15.4,115.3c-28.5,29.3-75.5,29.1-82.6,29c-9-0.1-50.8-1.8-78.3-29
		c-20.3-20.2-20.4-52.1-19.7-115.3c0.6-57.3,1.2-86.4,19.1-108.8c4.6-5.7,32.8-40.9,78.2-40.9c45.8,0,74.1,35.5,78.8,41.4
		C615.2,509,625.5,524.8,628.1,608.5z"/>
	<path class="st2" d="M628.1,608.5c3,93.6-8.7,108.4-15.4,115.3c-28.5,29.3-75.5,29.1-82.6,29c-9-0.1-50.8-1.8-78.3-29
		c-20.3-20.2-20.4-52.1-19.7-115.2c0.6-57.3,1.2-86.4,19.1-108.8c4.6-5.7,32.8-40.9,78.2-40.9c45.8,0,74.1,35.5,78.8,41.4
		C615.2,508.9,625.5,524.7,628.1,608.5z"/>
	<ellipse class="st0" cx="563.1" cy="529.8" rx="32.8" ry="41"/>
	<ellipse class="st0" cx="493.5" cy="530.9" rx="32.8" ry="42.1"/>
	
		<ellipse transform="matrix(0.7656 -0.6433 0.6433 0.7656 -209.3641 483.6257)" class="st3" cx="559" cy="529.1" rx="29.1" ry="27.5"/>
	<ellipse class="st4" cx="497.3" cy="529.7" rx="27.2" ry="28.7"/>
	<ellipse class="st5" cx="500.3" cy="526.2" rx="13.7" ry="14.4"/>
	<ellipse class="st5" cx="555.9" cy="526.6" rx="13.3" ry="14"/>
	<path class="st0" d="M469.2,656.4c-5.2,3-4.5,17.8,0.2,28.4c1.3,3,4.7,9.5,14.1,16.8c18.9,14.6,40.2,15.2,44.9,15.2
		c6.3,0,31.9-0.7,50.7-19.4c8.8-8.8,11.4-16.8,12.2-20.2c2.4-9.2,2.1-21.6-2.3-23.5c-3.8-1.6-7.8,6.2-15.5,12.5
		c-21,17.1-61.5,15.6-87.2-1.2C478.9,659.9,473.3,654.1,469.2,656.4z"/>
	<path class="st6" d="M527.3,586c-2.3,3.1-6.1,7.6-11.7,11.7c-3.7,2.6-9.3,6.6-17.5,7.8c-7.3,1.1-13-0.6-18.6-2.3
		c-2.5-0.8-8.9-2.8-16.2-7.5c-7.9-5.1-13.6-11.1-17.5-16.1"/>
	<path class="st6" d="M535.3,585.8c4.9,4,9.5,6.6,12.8,8.1c5.6,2.5,10.1,3.5,13.9,4.3c4.4,0.9,6.6,1.3,9.9,1.1
		c4.7-0.4,8.3-2,10.7-3.2c3.5-1.6,10.6-7.4,18.3-14.9c4.3-4.2,5.1-4.9,6.5-6.8c2.3-3.2,3.5-6.2,4.3-8.3"/>
	<path class="st7" d="M472.2,667.5c1.5,2.2,3.5,5,6.4,8.2c2.9,3.3,7,7.8,12.3,11c2,1.2,3.7,2,16.8,4.8c12.8,2.8,19.3,4.1,23.7,3.8
		c5.6-0.4,10.4-1.8,15.9-3.4c5.1-1.5,8.8-2.9,12.3-4.3c7.7-3.1,11.7-4.6,15-7.2c2.7-2,6.6-5.7,10-12"/>
</g>
<g id="skeleton_00000049224127743801019660000001757724534674130090_">
	<ellipse id="rightShoulder_00000026870673094804574870000003465384539221012895_" cx="502.5" cy="597.6" rx="4.1" ry="3.6"/>
	<ellipse id="rightElbow_00000051349183633336325610000018350318301123014316_" cx="476" cy="597.6" rx="4.1" ry="3.6"/>
	<ellipse id="rightWrist_00000036235821591399894190000004490609604236334744_" cx="413" cy="598" rx="4.1" ry="3.6"/>
	<ellipse id="rightHip_00000111161959345875556800000018418917410736988291_" cx="506.9" cy="685.3" rx="4.1" ry="3.6"/>
	<ellipse id="rightKnee_00000090985253240679843140000010366241115466899635_" cx="504.1" cy="756.4" rx="4.1" ry="3.6"/>
	<ellipse id="rightAnkle_00000082366727026004776570000012202948843896171664_" cx="504.1" cy="848.1" rx="4.1" ry="3.6"/>
	<ellipse id="leftShoulder_00000068649180377671901880000013588164817972699270_" cx="557.1" cy="597.7" rx="4.1" ry="3.6"/>
	<ellipse id="leftElbow_00000087374311740395679310000009688442201164970408_" cx="584.2" cy="597.6" rx="4.1" ry="3.6"/>
	<ellipse id="leftWrist_00000051368360133156772290000013544755591470029720_" cx="647" cy="597.6" rx="4.1" ry="3.6"/>
	<ellipse id="leftHip_00000113322095688950082850000018405438409414171524_" cx="553" cy="684.9" rx="4.1" ry="3.6"/>
	<ellipse id="leftKnee_00000124867974310749826550000002927280261834515874_" cx="559.3" cy="756.4" rx="4.1" ry="3.6"/>
	<ellipse id="leftAnkle_00000029729449379682750130000006324273311567330964_" cx="559.3" cy="848.1" rx="4.1" ry="3.6"/>
	<polygon class="st8" points="502.4,597.8 506.8,685.4 552.9,685.1 557,597.8 	"/>
	<polyline class="st8" points="502,597.8 475.9,597.6 412.9,598.1 	"/>
	<polyline class="st8" points="557.8,597.6 584.3,597.6 647.1,597.7 	"/>
	<polyline class="st8" points="506.8,685.4 504.1,756.5 504.1,848.2 	"/>
	<polyline class="st8" points="552.9,685.1 559.2,756.5 559.2,848.2 	"/>
	<ellipse id="rightEye0_00000002379518024784133490000003604480955019354538_" cx="513.7" cy="531.4" rx="0.4" ry="0.4"/>
	<ellipse id="rightBrow1_00000183238644874353728270000012410901181890281403_" cx="512.6" cy="526.2" rx="0.4" ry="0.4"/>
	<ellipse id="rightBrow4_00000144321682340452215390000003841377464688264631_" cx="524.3" cy="527.5" rx="0.4" ry="0.4"/>
	<ellipse id="nose1_00000011733220398933318590000010405197623122675600_" cx="528.2" cy="531.9" rx="0.4" ry="0.4"/>
	<ellipse id="rightBrow3_00000089547878918202056550000012288107623642903225_" cx="519.4" cy="525.7" rx="0.4" ry="0.4"/>
	<ellipse id="rightEye1_00000183215803506885778490000011349633269141947038_" cx="516.3" cy="529.8" rx="0.4" ry="0.4"/>
	<ellipse id="rightBrow0_00000116949537254746337740000003758079492072170374_" cx="510.6" cy="527.8" rx="0.4" ry="0.4"/>
	<ellipse id="rightBrow2_00000127730311492625406110000004091655382197673103_" cx="515.7" cy="525.7" rx="0.4" ry="0.4"/>
	<ellipse id="rightEye5_00000001634093088460256900000010401994768063880580_" cx="516.3" cy="532.5" rx="0.4" ry="0.4"/>
	<ellipse id="rightEye2_00000036239874199245962510000003046642278345607062_" cx="519.5" cy="529.8" rx="0.4" ry="0.4"/>
	<ellipse id="rightEye3_00000062914149182992043540000004350428710204291235_" cx="522" cy="531.7" rx="0.4" ry="0.4"/>
	<ellipse id="nose0_00000016793304760255434640000013197367968634905748_" cx="528.2" cy="529.3" rx="0.4" ry="0.4"/>
	<ellipse id="nose3_00000054976621511520563720000010477198125407077563_" cx="528.2" cy="537.4" rx="0.4" ry="0.4"/>
	<ellipse id="rightNose0_00000064322508373521501270000013885853667819726727_" cx="522.9" cy="539.4" rx="0.4" ry="0.4"/>
	<ellipse id="rightMouthCorner_00000153703134573553080550000005414076907364929934_" cx="519.8" cy="549.2" rx="0.4" ry="0.4"/>
	<ellipse id="rightNose1_00000101069505609687127820000017566517024923260857_" cx="525.5" cy="539.4" rx="0.4" ry="0.4"/>
	<ellipse id="rightUpperLipTop0_00000114041903336801976990000005754282445095680661_" cx="523.3" cy="547.7" rx="0.4" ry="0.4"/>
	<ellipse id="nose2_00000042696579774671766230000000141149033011701659_" cx="528.2" cy="534.3" rx="0.4" ry="0.4"/>
	<ellipse id="nose4_00000150093826537319939640000009508367349332696755_" cx="528.2" cy="539.8" rx="0.4" ry="0.4"/>
	<ellipse id="upperLipTopMid_00000171713633954043827920000003741881802658787976_" cx="528.6" cy="547.6" rx="0.4" ry="0.4"/>
	<ellipse id="rightUpperLipTop1_00000154386338335076368000000009203631634469859763_" cx="526.6" cy="547.2" rx="0.4" ry="0.4"/>
	<path id="rightMiddleLip_00000121993327832072767930000010565219516283690423_" d="M521.7,548.9c0.2,0,0.4,0.2,0.4,0.4
		s-0.2,0.4-0.4,0.4s-0.4-0.2-0.4-0.4S521.5,548.9,521.7,548.9z"/>
	<ellipse id="lowerLipBottomMid_00000028302401573947165370000002887203337755812283_" cx="528.6" cy="553.4" rx="0.4" ry="0.4"/>
	<ellipse id="upperLipBottomMid_00000006688723525944516580000012279638553749189044_" cx="528.6" cy="549.2" rx="0.4" ry="0.4"/>
	<ellipse id="lowerLipTopMid_00000039812187526324338740000009760312896092880513_" cx="528.6" cy="550.5" rx="0.4" ry="0.4"/>
	
		<ellipse id="rightUpperLipBottom1_00000052076116375093325450000005770709879498666883_" cx="526.7" cy="548.9" rx="0.4" ry="0.4"/>
	<ellipse id="rightLowerLipTop0_00000074444127595110357050000010444922955860125850_" cx="526.7" cy="550.2" rx="0.4" ry="0.4"/>
	
		<ellipse id="rightLowerLipBottom1_00000060739387408304137050000008610299434599564473_" cx="526.6" cy="553.2" rx="0.4" ry="0.4"/>
	
		<ellipse id="rightLowerLipBottom0_00000158001736751398106520000005357298070985339819_" cx="523.1" cy="551.9" rx="0.4" ry="0.4"/>
	<ellipse id="rightEye4_00000116930475576969675320000008341708128433297561_" cx="519.5" cy="532.1" rx="0.4" ry="0.4"/>
	<ellipse id="jawMid_00000169535872493329446440000007934388912232168865_" cx="528.6" cy="564.8" rx="0.4" ry="0.4"/>
	<ellipse id="rightJaw7_00000021818367062848942930000012354213888874264984_" cx="521.1" cy="563.3" rx="0.4" ry="0.4"/>
	<ellipse id="rightJaw6_00000000911543925518650190000013950822753028774295_" cx="516.1" cy="560.4" rx="0.4" ry="0.4"/>
	<ellipse id="rightJaw5_00000071555369538368114280000006618046525644743346_" cx="510.3" cy="554.9" rx="0.4" ry="0.4"/>
	<ellipse id="rightJaw4_00000005268735047807421980000007640040249094197639_" cx="506.9" cy="546.1" rx="0.4" ry="0.4"/>
	<ellipse id="rightJaw3_00000102531932567891890270000018302294506987985812_" cx="506.5" cy="536.5" rx="0.4" ry="0.4"/>
	<ellipse id="rightJaw2_00000054248790174071860100000014544597282065162156_" cx="506.5" cy="532.3" rx="0.4" ry="0.4"/>
	<ellipse id="rightJaw1_00000067941082724410832830000000609553723637432223_" cx="506.9" cy="527.1" rx="0.4" ry="0.4"/>
	<ellipse id="rightJaw0_00000178181179522631611060000000061357534475772067_" cx="508.1" cy="523" rx="0.4" ry="0.4"/>
	<ellipse id="topMid_00000063609093444808724820000012044865728799473815_" cx="528.8" cy="511.6" rx="0.4" ry="0.4"/>
	<ellipse id="leftTop0_00000010997431482197758910000017503806518843540379_" cx="538.6" cy="512.7" rx="0.4" ry="0.4"/>
	<ellipse id="leftTop1_00000012435838799469180900000001540945390148336024_" cx="544.9" cy="516.8" rx="0.4" ry="0.4"/>
	<ellipse id="leftEye0_00000104674933206447538970000009531652697344800688_" cx="543.6" cy="531.4" rx="0.4" ry="0.4"/>
	<ellipse id="leftBrow1_00000096752489937150581810000000785352022136569784_" cx="544.5" cy="526.3" rx="0.4" ry="0.4"/>
	<ellipse id="leftBrow4_00000148661764741946390020000013957767961617685422_" cx="532.7" cy="527.3" rx="0.4" ry="0.4"/>
	<ellipse id="leftBrow3_00000053513339922144786280000003435944275689862588_" cx="537.7" cy="525.9" rx="0.4" ry="0.4"/>
	<ellipse id="leftEye1_00000088831943021658000730000001470286287835541422_" cx="541" cy="529.8" rx="0.4" ry="0.4"/>
	<ellipse id="leftBrow0_00000143588133632170487300000005057682962005468083_" cx="546.5" cy="527.6" rx="0.4" ry="0.4"/>
	<ellipse id="leftBrow2_00000053536680451385833630000007448243534044051584_" cx="541.4" cy="525.7" rx="0.4" ry="0.4"/>
	<ellipse id="leftEye5_00000061470371668007659170000012060745829271785114_" cx="541" cy="532.5" rx="0.4" ry="0.4"/>
	<ellipse id="leftEye2_00000073689109170212013010000000907492460963234724_" cx="537.8" cy="529.8" rx="0.4" ry="0.4"/>
	<ellipse id="leftEye3_00000054236765386509415120000001027130554398999172_" cx="535.2" cy="531.7" rx="0.4" ry="0.4"/>
	<ellipse id="leftNose0_00000046324522014986237910000003695056213779495859_" cx="533.5" cy="539.4" rx="0.4" ry="0.4"/>
	<ellipse id="leftMouthCorner_00000091700412112971515900000014856659965566705835_" cx="537.4" cy="549.2" rx="0.4" ry="0.4"/>
	<ellipse id="leftNose1_00000164516413469873678160000012044507782476348308_" cx="531" cy="539.4" rx="0.4" ry="0.4"/>
	<ellipse id="leftUpperLipTop0_00000103233906304302429110000013752167421231247796_" cx="534" cy="547.7" rx="0.4" ry="0.4"/>
	<ellipse id="leftUpperLipTop1_00000160904939851039442200000002561491266494366361_" cx="530.7" cy="547.2" rx="0.4" ry="0.4"/>
	<path id="leftMiddleLip_00000081637182127673369360000016078857107703921335_" d="M535.6,548.9c0.2,0,0.4,0.2,0.4,0.4
		s-0.2,0.4-0.4,0.4s-0.4-0.2-0.4-0.4S535.4,548.9,535.6,548.9z"/>
	<ellipse id="leftUpperLipBottom1_00000002347811615015408170000008800564305141695932_" cx="530.7" cy="548.9" rx="0.4" ry="0.4"/>
	<ellipse id="leftLowerLipTop0_00000132081288190735636900000004453200768114892438_" cx="530.7" cy="550.2" rx="0.4" ry="0.4"/>
	<ellipse id="leftLowerLipBottom1_00000072253610145009961500000012141327534084652712_" cx="530.7" cy="553.2" rx="0.4" ry="0.4"/>
	<ellipse id="leftLowerLipBottom0_00000070825102648743181110000001651140954463080102_" cx="534.2" cy="551.9" rx="0.4" ry="0.4"/>
	<ellipse id="leftEye4_00000097472247087056254030000000894563010150640547_" cx="537.8" cy="532.1" rx="0.4" ry="0.4"/>
	<ellipse id="leftJaw7_00000164507967282455530460000015232411267449206960_" cx="536" cy="563.5" rx="0.4" ry="0.4"/>
	<path id="leftJaw6_00000014636313341416596860000000167207367099333025_" d="M541.1,560.2c0.2,0,0.4,0.2,0.4,0.4s-0.2,0.4-0.4,0.4
		s-0.4-0.2-0.4-0.4C540.7,560.4,540.9,560.2,541.1,560.2z"/>
	<ellipse id="leftJaw5_00000050627100607512264630000015351710025551686794_" cx="546.9" cy="555" rx="0.4" ry="0.4"/>
	<ellipse id="leftJaw4_00000167373184657340010840000008119561568015887022_" cx="550.3" cy="546.2" rx="0.4" ry="0.4"/>
	<ellipse id="leftJaw3_00000062157294474697809210000009272008570554493571_" cx="550.7" cy="536.7" rx="0.4" ry="0.4"/>
	<ellipse id="leftJaw2_00000144332286384047846180000008230856493930505616_" cx="550.7" cy="532.5" rx="0.4" ry="0.4"/>
	<ellipse id="leftJaw1_00000005248502455578278030000002448730149429527439_" cx="550.3" cy="527.3" rx="0.4" ry="0.4"/>
	<ellipse id="leftJaw0_00000080166174839100025090000007536720748741255603_" cx="549" cy="523.2" rx="0.4" ry="0.4"/>
	<polyline class="st8" points="528.6,511.6 518.7,512.7 512.5,516.8 508.1,523 506.9,527.1 506.5,532.3 506.5,536.5 506.9,546.1 
		510.3,554.9 516.1,560.4 521.1,563.3 528.6,564.8 536,563.5 541.1,560.6 546.9,555 550.3,546.2 550.7,536.7 550.7,532.5 
		550.3,527.3 549,523.2 544.9,516.8 538.6,512.7 528.6,511.6 	"/>
	<polyline class="st8" points="510.6,527.8 512.6,526.2 515.7,525.7 519.4,525.7 524.3,527.5 	"/>
	<polygon class="st8" points="513.7,531.4 516.3,529.8 519.5,529.8 522,531.7 519.5,532.1 516.3,532.5 	"/>
	<polyline class="st8" points="522.9,539.4 525.5,539.4 528.2,539.8 528.2,537.4 528.2,534.3 528.2,531.9 528.2,529.3 	"/>
	<polyline class="st8" points="546.4,527.6 544.5,526.3 541.3,525.7 537.6,525.9 532.6,527.3 	"/>
	<polygon class="st8" points="543.5,531.4 540.8,529.8 537.7,529.8 535.1,531.7 537.7,532.1 540.8,532.5 	"/>
	<polyline class="st8" points="533.5,539.4 531,539.4 528.2,539.8 	"/>
	<polygon class="st8" points="519.8,549.2 523.3,547.7 526.6,547.2 528.6,547.6 530.7,547.2 534,547.7 537.4,549.2 534.2,551.9 
		530.7,553.2 528.6,553.4 526.6,553.2 523.1,551.9 	"/>
	<polyline class="st8" points="519.8,549.2 521.7,549.3 526.7,548.9 528.6,549.2 530.7,548.9 535.6,549.3 537.4,549.2 	"/>
	<polyline class="st8" points="519.8,549.2 521.7,549.3 526.7,550.2 528.6,550.6 530.7,550.2 535.6,549.3 537.4,549.2 	"/>
	<ellipse id="rightTop0_00000125567078482915448410000002865636883959019397_" cx="518.7" cy="512.7" rx="0.4" ry="0.4"/>
	<ellipse id="rightTop1_00000168828907103958137560000010982072806998773915_" cx="512.5" cy="516.8" rx="0.4" ry="0.4"/>
</g>
</svg>
