<?xml version="1.0" encoding="utf-8"?>
<svg viewBox="0 0 500 500" xmlns="http://www.w3.org/2000/svg">
  <g id="illustration_1_" transform="matrix(0.676909, 0.0016, -0.001257, 0.531518, -161.776245, 6.851479)" style="">
    <circle style="fill: rgb(28, 167, 7);" cx="152.406" cy="11.141" r="84.374" transform="matrix(1.477299, 0, 0, 1.881393, 262.483551, 107.539268)"/>
    <circle style="fill: rgb(23, 182, 105);" cx="228.164" cy="47.683" r="63.072" transform="matrix(1.477299, 0, 0, 1.881393, 262.483551, 107.539268)"/>
    <circle style="fill: rgb(22, 220, 101);" cx="260.25" cy="69.073" r="52.953" transform="matrix(1.477299, 0, 0, 1.881393, 262.483551, 107.539268)"/>
    <circle style="fill: rgb(34, 214, 49);" cx="189.84" cy="90.463" r="59.582" transform="matrix(1.477299, 0, 0, 1.881393, 262.483551, 107.539268)"/>
    <circle style="fill: rgb(25, 103, 22);" cx="283.422" cy="87.79" r="45.393" transform="matrix(1.477299, 0, 0, 1.881393, 262.483551, 107.539268)"/>
    <circle style="fill: rgb(34, 114, 31);" cx="320.856" cy="64.617" r="34.125" transform="matrix(1.477299, 0, 0, 1.881393, 262.483551, 107.539268)"/>
    <circle style="fill: rgb(79, 158, 11);" cx="283.422" cy="19.162" r="32.443" transform="matrix(1.477299, 0, 0, 1.881393, 262.483551, 107.539268)"/>
    <circle style="fill: rgb(55, 199, 98);" cx="306.595" cy="31.64" r="35.494" transform="matrix(1.477299, 0, 0, 1.881393, 262.483551, 107.539268)"/>
    <circle style="fill: rgb(38, 176, 50);" cx="338.681" cy="77.986" r="31.397" transform="matrix(1.477299, 0, 0, 1.881393, 262.483551, 107.539268)"/>
    <circle style="fill: rgb(50, 205, 26);" cx="319.964" cy="113.636" r="31.612" transform="matrix(1.477299, 0, 0, 1.881393, 262.483551, 107.539268)"/>
    <circle style="fill: rgb(36, 214, 68);" cx="364.528" cy="110.071" r="40.057" transform="matrix(1.477299, 0, 0, 1.881393, 262.483551, 107.539268)"/>
    <circle style="fill: rgb(74, 202, 54);" cx="252.228" cy="132.353" r="37.824" transform="matrix(1.477299, 0, 0, 1.881393, 262.483551, 107.539268)"/>
    <circle style="fill: rgb(71, 161, 40);" cx="91.8" cy="114.528" r="33.408" transform="matrix(1.477299, 0, 0, 1.881393, 262.483551, 107.539268)"/>
    <circle style="fill: rgb(106, 208, 50);" cx="122.995" cy="108.289" r="35.928" transform="matrix(1.477299, 0, 0, 1.881393, 262.483551, 107.539268)"/>
    <circle style="fill: rgb(38, 191, 3);" cx="288.77" cy="127.005" r="28.311" transform="matrix(1.477299, 0, 0, 1.881393, 262.483551, 107.539268)"/>
    <circle style="fill: rgb(54, 208, 59);" cx="395.722" cy="118.093" r="35.483" transform="matrix(1.477299, 0, 0, 1.881393, 262.483551, 107.539268)"/>
    <circle style="fill: rgb(36, 214, 59);" cx="192.513" cy="137.701" r="34.403" transform="matrix(1.477299, 0, 0, 1.881393, 262.483551, 107.539268)"/>
    <circle style="fill: rgb(25, 199, 39);" cx="347.594" cy="41.444" r="18.907" transform="matrix(1.477299, 0, 0, 1.881393, 262.483551, 107.539268)"/>
    <circle style="fill: rgb(83, 185, 49);" cx="311.052" cy="137.701" r="21.759" transform="matrix(1.477299, 0, 0, 1.881393, 262.483551, 107.539268)"/>
    <rect x="562.684" y="426.973" width="143.517" height="318.595" style="fill: rgb(216, 216, 216);"/>
    <rect x="557.417" y="420.266" width="159.316" height="320.273" style="fill: rgb(211, 144, 35);"/>
    <circle style="fill: rgb(194, 23, 23);" cx="158.645" cy="134.135" r="21.557" transform="matrix(1.477299, 0, 0, 1.881393, 262.483551, 107.539268)"/>
    <circle style="fill: rgb(197, 28, 28);" cx="327.094" cy="133.244" r="15.943" transform="matrix(1.477299, 0, 0, 1.881393, 262.483551, 107.539268)"/>
    <circle style="fill: rgb(179, 31, 31);" cx="265.597" cy="86.898" r="15.334" transform="matrix(1.477299, 0, 0, 1.881393, 262.483551, 107.539268)"/>
    <circle style="fill: rgb(229, 40, 40);" cx="336.007" cy="45.009" r="11.344" transform="matrix(1.477299, 0, 0, 1.881393, 262.483551, 107.539268)"/>
    <circle style="fill: rgb(229, 55, 55);" cx="192.513" cy="26.292" r="13.369" transform="matrix(1.477299, 0, 0, 1.881393, 262.483551, 107.539268)"/>
    <circle style="fill: rgb(226, 41, 41);" cx="204.991" cy="84.225" r="12.854" transform="matrix(1.477299, 0, 0, 1.881393, 262.483551, 107.539268)"/>
    <circle style="fill: rgb(211, 51, 51);" cx="109.626" cy="33.422" r="8.823" transform="matrix(1.477299, 0, 0, 1.881393, 262.483551, 107.539268)"/>
    <circle style="fill: rgb(193, 29, 29);" cx="383.244" cy="90.463" r="13.865" transform="matrix(1.477299, 0, 0, 1.881393, 262.483551, 107.539268)"/>
    <circle style="fill: rgb(220, 24, 24);" cx="256.685" cy="12.923" r="12.604" transform="matrix(1.477299, 0, 0, 1.881393, 262.483551, 107.539268)"/>
    <circle style="fill: rgb(205, 41, 41);" cx="128.342" cy="95.811" r="12.414" transform="matrix(1.477299, 0, 0, 1.881393, 262.483551, 107.539268)"/>
    <circle style="fill: rgb(39, 167, 10);" cx="284.314" cy="152.852" r="31.612" transform="matrix(1.477299, 0, 0, 1.881393, 262.483551, 107.539268)"/>
    <circle style="fill: rgb(32, 161, 49);" cx="207.665" cy="155.526" r="24.081" transform="matrix(1.477299, 0, 0, 1.881393, 262.483551, 107.539268)"/>
    <circle style="fill: rgb(31, 188, 70);" cx="226.381" cy="159.982" r="15.125" transform="matrix(1.477299, 0, 0, 1.881393, 262.483551, 107.539268)"/>
    <rect x="591.649" y="364.931" width="17.116" height="23.476" style="fill: rgb(45, 51, 226);"/>
    <rect x="606.133" y="190.543" width="11.849" height="15.091" style="fill: rgb(78, 163, 202);"/>
    <rect x="795.734" y="306.243" width="9.217" height="20.121" style="fill: rgb(22, 73, 190);"/>
    <rect x="485" y="225.755" width="15.8" height="20.121" style="fill: rgb(185, 18, 132);"/>
    <rect x="467.883" y="120.115" width="9.217" height="13.414" style="fill: rgb(205, 197, 32);"/>
    <rect x="711.467" y="145.267" width="15.8" height="16.769" style="fill: rgb(167, 159, 17);"/>
    <rect x="553.467" y="307.919" width="11.849" height="16.769" style="fill: rgb(210, 231, 15);"/>
    <rect x="853.666" y="331.395" width="7.901" height="13.414" style="fill: rgb(237, 228, 42);"/>
    <rect x="589.017" y="106.7" width="11.849" height="11.738" style="fill: rgb(246, 246, 16);"/>
    <rect x="382.3" y="324.688" width="15.8" height="18.445" style="fill: rgb(215, 237, 10);"/>
    <rect x="556.1" y="210.664" width="9.217" height="13.414" style="fill: rgb(193, 243, 12);"/>
  </g>
  <g id="skeleton_1_" transform="matrix(0.676911, 0, 0, 0.531521, -162.226917, 7.849864)" style="">
    <circle id="rightShoulder" cx="572.3" cy="366.3" r="8.2"/>
    <circle id="rightElbow" cx="489.5" cy="343.4" r="8.2"/>
    <circle id="rightWrist" cx="393.8" cy="345.5" r="8.2"/>
    <circle id="rightHip" cx="581.1" cy="564.1" r="8.2"/>
    <circle id="rightKnee" cx="575.6" cy="725.2" r="8.2"/>
    <circle id="rightAnkle" cx="575.6" cy="933.2" r="8.2"/>
    <circle id="leftShoulder" cx="681.3" cy="366.4" r="8.2"/>
    <circle id="leftElbow" cx="765.3" cy="342.3" r="8.2"/>
    <circle id="leftWrist" cx="860.6" cy="344.5" r="8.2"/>
    <circle id="leftHip" cx="673.1" cy="563.3" r="8.2"/>
    <circle id="leftKnee" cx="685.6" cy="725.2" r="8.2"/>
    <circle id="leftAnkle" cx="685.6" cy="933.2" r="8.2"/>
    <polygon class="st14" points="572.2,366.6 581,564.4 673,563.6 681.2,366.7 &#9;" style="fill: none; stroke: rgb(0, 0, 0); stroke-miterlimit: 10;"/>
    <polyline class="st14" points="571.2,366.6 489.2,343.6 393.6,345.6 &#9;" style="fill: none; stroke: rgb(0, 0, 0); stroke-miterlimit: 10;"/>
    <polyline class="st14" points="682.7,366.3 765.5,342.5 860.7,344.8 &#9;" style="fill: none; stroke: rgb(0, 0, 0); stroke-miterlimit: 10;"/>
    <polyline class="st14" points="581,564.4 575.5,725.5 575.5,933.5 &#9;" style="fill: none; stroke: rgb(0, 0, 0); stroke-miterlimit: 10;"/>
    <polyline class="st14" points="673,563.6 685.5,725.5 685.5,933.5 &#9;" style="fill: none; stroke: rgb(0, 0, 0); stroke-miterlimit: 10;"/>
    <circle id="rightEye0" cx="594.7" cy="215.1" r="0.8"/>
    <circle id="rightBrow1" cx="592.5" cy="203.2" r="0.8"/>
    <circle id="rightBrow4" cx="615.8" cy="206.2" r="0.8"/>
    <circle id="nose1" cx="623.7" cy="216.1" r="0.8"/>
    <circle id="rightBrow3" cx="606" cy="202.2" r="0.8"/>
    <circle id="rightEye1" cx="599.9" cy="211.4" r="0.8"/>
    <circle id="rightBrow0" cx="588.5" cy="206.9" r="0.8"/>
    <circle id="rightBrow2" cx="598.7" cy="202.2" r="0.8"/>
    <circle id="rightEye5" cx="599.9" cy="217.4" r="0.8"/>
    <circle id="rightEye2" cx="606.2" cy="211.4" r="0.8"/>
    <circle id="rightEye3" cx="611.4" cy="215.6" r="0.8"/>
    <circle id="nose0" cx="623.7" cy="210.3" r="0.8"/>
    <circle id="nose3" cx="623.7" cy="228.7" r="0.8"/>
    <circle id="rightNose0" cx="613" cy="233.2" r="0.8"/>
    <circle id="rightMouthCorner" cx="607" cy="255.3" r="0.8"/>
    <circle id="rightNose1" cx="618.2" cy="233.2" r="0.8"/>
    <circle id="rightUpperLipTop0" cx="613.9" cy="251.9" r="0.8"/>
    <circle id="nose2" cx="623.7" cy="221.6" r="0.8"/>
    <circle id="nose4" cx="623.7" cy="234" r="0.8"/>
    <circle id="upperLipTopMid" cx="624.5" cy="251.7" r="0.8"/>
    <circle id="rightUpperLipTop1" cx="620.4" cy="250.8" r="0.8"/>
    <path id="rightMiddleLip" d="M610.6,254.8c0.4,0,0.8,0.4,0.8,0.8c0,0.4-0.4,0.8-0.8,0.8s-0.8-0.4-0.8-0.8S610.2,254.8,610.6,254.8z "/>
    <circle id="lowerLipBottomMid" cx="624.5" cy="264.9" r="0.8"/>
    <circle id="upperLipBottomMid" cx="624.5" cy="255.3" r="0.8"/>
    <circle id="lowerLipTopMid" cx="624.5" cy="258.4" r="0.8"/>
    <circle id="rightUpperLipBottom1" cx="620.6" cy="254.8" r="0.8"/>
    <circle id="rightLowerLipTop0" cx="620.6" cy="257.7" r="0.8"/>
    <circle id="rightLowerLipBottom1" cx="620.4" cy="264.4" r="0.8"/>
    <circle id="rightLowerLipBottom0" cx="613.4" cy="261.6" r="0.8"/>
    <circle id="rightEye4" cx="606.2" cy="216.6" r="0.8"/>
    <circle id="jawMid" cx="624.5" cy="290.7" r="0.8"/>
    <circle id="rightJaw7" cx="609.5" cy="287.5" r="0.8"/>
    <circle id="rightJaw6" cx="599.5" cy="280.8" r="0.8"/>
    <circle id="rightJaw5" cx="587.9" cy="268.3" r="0.8"/>
    <circle id="rightJaw4" cx="581.1" cy="248.3" r="0.8"/>
    <circle id="rightJaw3" cx="580.3" cy="226.6" r="0.8"/>
    <circle id="rightJaw2" cx="580.3" cy="217.1" r="0.8"/>
    <circle id="rightJaw1" cx="581.1" cy="205.4" r="0.8"/>
    <circle id="rightJaw0" cx="583.6" cy="196.1" r="0.8"/>
    <circle id="topMid" cx="624.7" cy="170" r="0.8"/>
    <circle id="leftTop0" cx="644.4" cy="172.5" r="0.8"/>
    <circle id="leftTop1" cx="657" cy="182" r="0.8"/>
    <circle id="leftEye0" cx="654.3" cy="215.1" r="0.8"/>
    <circle id="leftBrow1" cx="656.2" cy="203.6" r="0.8"/>
    <circle id="leftBrow4" cx="632.6" cy="205.7" r="0.8"/>
    <circle id="leftBrow3" cx="642.6" cy="202.5" r="0.8"/>
    <circle id="leftEye1" cx="649.1" cy="211.4" r="0.8"/>
    <circle id="leftBrow0" cx="660.2" cy="206.5" r="0.8"/>
    <circle id="leftBrow2" cx="649.9" cy="202.1" r="0.8"/>
    <circle id="leftEye5" cx="649.1" cy="217.4" r="0.8"/>
    <circle id="leftEye2" cx="642.8" cy="211.4" r="0.8"/>
    <circle id="leftEye3" cx="637.6" cy="215.6" r="0.8"/>
    <circle id="leftNose0" cx="634.1" cy="233.2" r="0.8"/>
    <circle id="leftMouthCorner" cx="642" cy="255.3" r="0.8"/>
    <circle id="leftNose1" cx="629.3" cy="233.2" r="0.8"/>
    <circle id="leftUpperLipTop0" cx="635.1" cy="251.9" r="0.8"/>
    <circle id="leftUpperLipTop1" cx="628.7" cy="250.8" r="0.8"/>
    <path id="leftMiddleLip" d="M638.4,254.8c0.4,0,0.8,0.4,0.8,0.8c0,0.4-0.4,0.8-0.8,0.8s-0.8-0.4-0.8-0.8S638,254.8,638.4,254.8z"/>
    <circle id="leftUpperLipBottom1" cx="628.5" cy="254.8" r="0.8"/>
    <circle id="leftLowerLipTop0" cx="628.5" cy="257.7" r="0.8"/>
    <circle id="leftLowerLipBottom1" cx="628.7" cy="264.4" r="0.8"/>
    <circle id="leftLowerLipBottom0" cx="635.6" cy="261.6" r="0.8"/>
    <circle id="leftEye4" cx="642.8" cy="216.6" r="0.8"/>
    <circle id="leftJaw7" cx="639.3" cy="287.9" r="0.8"/>
    <circle id="leftJaw6" cx="649.3" cy="281.2" r="0.8"/>
    <circle id="leftJaw5" cx="660.9" cy="268.6" r="0.8"/>
    <circle id="leftJaw4" cx="667.7" cy="248.6" r="0.8"/>
    <circle id="leftJaw3" cx="668.5" cy="227" r="0.8"/>
    <circle id="leftJaw2" cx="668.5" cy="217.4" r="0.8"/>
    <circle id="leftJaw1" cx="667.7" cy="205.7" r="0.8"/>
    <circle id="leftJaw0" cx="665.2" cy="196.5" r="0.8"/>
    <polyline class="st14" points="624.5,170 604.7,172.5 592.2,182 583.6,196.1 581.1,205.4 580.3,217.1 580.3,226.6 581.1,248.3 &#10;&#9;&#9;587.9,268.3 599.5,280.8 609.5,287.5 624.5,290.7 639.3,287.9 649.3,281.2 660.9,268.6 667.7,248.6 668.5,227 668.5,217.4 &#10;&#9;&#9;667.7,205.7 665.2,196.5 657,182 644.4,172.5 624.5,170 &#9;" style="fill: none; stroke: rgb(0, 0, 0); stroke-miterlimit: 10;"/>
    <polyline class="st14" points="588.5,206.9 592.5,203.2 598.7,202.2 606,202.2 615.8,206.2 &#9;" style="fill: none; stroke: rgb(0, 0, 0); stroke-miterlimit: 10;"/>
    <polygon class="st14" points="594.7,215.1 599.9,211.4 606.2,211.4 611.4,215.6 606.2,216.6 599.9,217.4 &#9;" style="fill: none; stroke: rgb(0, 0, 0); stroke-miterlimit: 10;"/>
    <polyline class="st14" points="613,233.2 618.2,233.2 623.7,234 623.7,228.7 623.7,221.6 623.7,216.1 623.7,210.3 &#9;" style="fill: none; stroke: rgb(0, 0, 0); stroke-miterlimit: 10;"/>
    <polyline class="st14" points="660,206.5 656,203.6 649.7,202.1 642.4,202.5 632.4,205.7 &#9;" style="fill: none; stroke: rgb(0, 0, 0); stroke-miterlimit: 10;"/>
    <polygon class="st14" points="654.1,215.1 648.8,211.4 642.5,211.4 637.4,215.6 642.5,216.6 648.8,217.4 &#9;" style="fill: none; stroke: rgb(0, 0, 0); stroke-miterlimit: 10;"/>
    <polyline class="st14" points="634.1,233.2 629.1,233.2 623.7,234 &#9;" style="fill: none; stroke: rgb(0, 0, 0); stroke-miterlimit: 10;"/>
    <polygon class="st14" points="607,255.3 613.9,251.9 620.4,250.8 624.5,251.7 628.7,250.8 635.1,251.9 642,255.3 635.6,261.6 &#10;&#9;&#9;628.5,264.4 624.5,264.9 620.4,264.4 613.4,261.6 &#9;" style="fill: none; stroke: rgb(0, 0, 0); stroke-miterlimit: 10;"/>
    <polyline class="st14" points="607,255.3 610.6,255.6 620.6,254.8 624.5,255.3 628.5,254.8 638.4,255.6 642,255.3 &#9;" style="fill: none; stroke: rgb(0, 0, 0); stroke-miterlimit: 10;"/>
    <polyline class="st14" points="607,255.3 610.6,255.6 620.6,257.7 624.5,258.5 628.5,257.7 638.4,255.6 642,255.3 &#9;" style="fill: none; stroke: rgb(0, 0, 0); stroke-miterlimit: 10;"/>
    <circle id="rightTop0" cx="604.8" cy="172.5" r="0.8"/>
    <circle id="rightTop1" cx="592.2" cy="182" r="0.8"/>
  </g>
</svg>